<svg width="121" height="115" viewBox="0 0 121 115" fill="none" xmlns="http://www.w3.org/2000/svg">
<g filter="url(#filter0_i_3_495)">
<path fill-rule="evenodd" clip-rule="evenodd" d="M35.5575 0.345C42.009 0.0627272 44.066 0 60.5 0C76.934 0 78.991 0.0679545 85.437 0.345C91.883 0.622045 96.283 1.59955 100.133 3.01614C104.164 4.46409 107.822 6.7275 110.847 9.65477C113.927 12.5245 116.303 15.9955 117.821 19.8323C119.317 23.4914 120.34 27.6732 120.637 33.7891C120.934 39.9311 121 41.8861 121 57.5C121 73.1191 120.928 75.0741 120.637 81.2057C120.345 87.3216 119.317 91.5034 117.821 95.1625C116.303 98.9998 113.923 102.476 110.847 105.35C107.822 108.278 104.164 110.536 100.133 111.979C96.283 113.4 91.883 114.373 85.448 114.655C78.991 114.937 76.934 115 60.5 115C44.066 115 42.009 114.932 35.5575 114.655C29.1225 114.378 24.7225 113.4 20.8725 111.979C16.8351 110.536 13.177 108.274 10.153 105.35C7.07509 102.479 4.69323 99.0039 3.1735 95.1677C1.683 91.5086 0.66 87.3268 0.363 81.2109C0.0659999 75.0689 0 73.1139 0 57.5C0 41.8809 0.0714999 39.9259 0.363 33.7995C0.6545 27.6732 1.683 23.4914 3.1735 19.8323C4.69548 15.9959 7.07915 12.521 10.1585 9.64954C13.1782 6.72489 16.8326 4.46118 20.867 3.01614C24.717 1.59955 29.117 0.627273 35.552 0.345H35.5575ZM84.9475 10.695C78.5675 10.418 76.6535 10.3605 60.5 10.3605C44.3465 10.3605 42.4325 10.418 36.0525 10.695C30.151 10.9511 26.95 11.8868 24.816 12.6761C21.9945 13.7216 19.976 14.9605 17.8585 16.973C15.8512 18.8289 14.3065 21.0883 13.3375 23.5855C12.507 25.6136 11.5225 28.6559 11.253 34.2648C10.9615 40.3284 10.901 42.1475 10.901 57.5C10.901 72.8525 10.9615 74.6716 11.253 80.7352C11.5225 86.3441 12.507 89.3864 13.3375 91.4145C14.3055 93.908 15.851 96.1714 17.8585 98.027C19.811 99.935 22.1925 101.404 24.816 102.324C26.95 103.113 30.151 104.049 36.0525 104.305C42.4325 104.582 44.341 104.64 60.5 104.64C76.659 104.64 78.5675 104.582 84.9475 104.305C90.849 104.049 94.05 103.113 96.184 102.324C99.0055 101.278 101.024 100.04 103.142 98.027C105.149 96.1714 106.695 93.908 107.663 91.4145C108.493 89.3864 109.478 86.3441 109.747 80.7352C110.039 74.6716 110.099 72.8525 110.099 57.5C110.099 42.1475 110.039 40.3284 109.747 34.2648C109.478 28.6559 108.493 25.6136 107.663 23.5855C106.563 20.9039 105.259 18.9855 103.142 16.973C101.189 15.0654 98.8114 13.5972 96.184 12.6761C94.05 11.8868 90.849 10.9511 84.9475 10.695ZM52.7725 75.2257C57.0881 76.9331 61.8936 77.1635 66.3681 75.8776C70.8426 74.5918 74.7087 71.8693 77.3059 68.1754C79.9031 64.4814 81.0703 60.045 80.6083 55.624C80.1462 51.2029 78.0835 47.0714 74.7725 43.9352C72.6618 41.9304 70.1097 40.3954 67.2998 39.4405C64.49 38.4857 61.4924 38.1348 58.5227 38.4132C55.5531 38.6916 52.6853 39.5923 50.1259 41.0505C47.5665 42.5086 45.3791 44.488 43.7212 46.846C42.0632 49.2041 40.976 51.8822 40.5378 54.6875C40.0996 57.4929 40.3213 60.3556 41.187 63.0697C42.0526 65.7839 43.5406 68.2818 45.544 70.3838C47.5473 72.4857 50.016 74.1394 52.7725 75.2257ZM38.511 36.6014C41.3986 33.8569 44.8268 31.6799 48.5996 30.1946C52.3725 28.7093 56.4163 27.9449 60.5 27.9449C64.5837 27.9449 68.6275 28.7093 72.4004 30.1946C76.1732 31.6799 79.6014 33.8569 82.489 36.6014C85.3766 39.3458 87.6672 42.6039 89.23 46.1897C90.7928 49.7755 91.5971 53.6188 91.5971 57.5C91.5971 61.3812 90.7928 65.2245 89.23 68.8103C87.6672 72.396 85.3766 75.6542 82.489 78.3986C76.6572 83.9413 68.7475 87.0551 60.5 87.0551C52.2525 87.0551 44.3428 83.9413 38.511 78.3986C32.6792 72.856 29.4029 65.3385 29.4029 57.5C29.4029 49.6615 32.6792 42.144 38.511 36.6014ZM98.494 32.3464C99.2096 31.7048 99.7824 30.9333 100.179 30.0776C100.575 29.2218 100.786 28.2992 100.801 27.3644C100.815 26.4296 100.632 25.5015 100.262 24.6351C99.8923 23.7688 99.3434 22.9818 98.6478 22.3207C97.9522 21.6596 97.1241 21.1378 96.2125 20.7863C95.301 20.4349 94.3245 20.2608 93.3409 20.2744C92.3573 20.288 91.3865 20.4891 90.4861 20.8657C89.5858 21.2423 88.774 21.7867 88.099 22.4668C86.7862 23.7895 86.0675 25.5463 86.0954 27.3644C86.1232 29.1825 86.8956 30.9187 88.2484 32.2044C89.6012 33.4901 91.4279 34.2241 93.3409 34.2507C95.2538 34.2772 97.1023 33.5941 98.494 32.3464Z" fill="black"/>
</g>
<defs>
<filter id="filter0_i_3_495" x="0" y="0" width="121" height="119" filterUnits="userSpaceOnUse" color-interpolation-filters="sRGB">
<feFlood flood-opacity="0" result="BackgroundImageFix"/>
<feBlend mode="normal" in="SourceGraphic" in2="BackgroundImageFix" result="shape"/>
<feColorMatrix in="SourceAlpha" type="matrix" values="0 0 0 0 0 0 0 0 0 0 0 0 0 0 0 0 0 0 127 0" result="hardAlpha"/>
<feOffset dy="4"/>
<feGaussianBlur stdDeviation="2"/>
<feComposite in2="hardAlpha" operator="arithmetic" k2="-1" k3="1"/>
<feColorMatrix type="matrix" values="0 0 0 0 0 0 0 0 0 0 0 0 0 0 0 0 0 0 0.25 0"/>
<feBlend mode="normal" in2="shape" result="effect1_innerShadow_3_495"/>
</filter>
</defs>
</svg>
