<svg width="610" height="606" viewBox="0 0 610 606" fill="none" xmlns="http://www.w3.org/2000/svg">
<path fill-rule="evenodd" clip-rule="evenodd" d="M267.105 56.0234C320.491 61.992 376.485 21.0762 424.61 44.9459C473.215 69.0536 483.879 131.908 512.734 177.854C546.778 232.063 607.763 275.258 609.438 339.249C611.15 404.705 574.469 472.004 521.436 510.409C470.722 547.134 399.599 519.097 339.051 535.055C281.009 550.351 231.986 622.218 175.636 601.543C118.233 580.482 122.398 495.383 89.8489 443.622C63.7097 402.053 15.211 375.624 3.57414 327.919C-8.50806 278.388 12.8938 229.084 25.4633 179.675C40.7898 119.429 29.8736 35.3206 85.2142 7.00195C142.27 -22.1942 203.41 48.9024 267.105 56.0234Z" fill="#1D1F26"/>
</svg>
