<svg width="696" height="597" viewBox="0 0 696 597" fill="none" xmlns="http://www.w3.org/2000/svg">
<path fill-rule="evenodd" clip-rule="evenodd" d="M348.568 43.3897C396.243 60.9092 424.024 110.002 471.462 128.151C538.194 153.681 632.486 113.645 677.415 169.199C719.326 221.021 679.026 299.934 662.637 364.535C647.723 423.32 629.917 483.142 586.918 525.91C545.412 567.192 487.999 589.6 429.82 596.097C377.019 601.994 329.93 570.629 277.788 560.435C218.657 548.874 152.436 566.584 102.964 532.196C49.4673 495.009 13.4861 433.356 2.56821 369.126C-8.46661 304.208 18.1194 240.802 43.0752 179.865C68.9438 116.698 87.3588 37.7456 149.681 9.904C212.332 -18.0845 284.161 19.7214 348.568 43.3897Z" fill="#FFB347"/>
</svg>
