<svg width="708" height="590" viewBox="0 0 708 590" fill="none" xmlns="http://www.w3.org/2000/svg">
<g filter="url(#filter0_d_2_331)">
<path fill-rule="evenodd" clip-rule="evenodd" d="M381.42 35.2507C429.32 3.8077 495.258 2.87905 549.793 20.4983C607.829 39.2489 673.646 75.5267 688.782 134.554C704.664 196.491 630.24 248.145 624.496 311.824C619.521 366.972 689.468 425.718 658.38 471.56C626.324 518.83 549.928 497.881 493.263 505.339C455.65 510.29 418.187 498.672 381.42 508.015C327.716 521.661 285.646 581.562 231.071 571.964C179.06 562.817 133.392 513.39 120.741 462.17C107.954 410.404 181.025 363.219 166.814 311.824C143.95 229.136 -40.5941 163.345 21.8208 104.426C94.2708 36.0344 207.783 199.58 305.665 180.75C360.334 170.234 334.893 65.7923 381.42 35.2507Z" fill="url(#paint0_linear_2_331)"/>
</g>
<defs>
<filter id="filter0_d_2_331" x="0.4" y="0.4" width="707.2" height="589.2" filterUnits="userSpaceOnUse" color-interpolation-filters="sRGB">
<feFlood flood-opacity="0" result="BackgroundImageFix"/>
<feColorMatrix in="SourceAlpha" type="matrix" values="0 0 0 0 0 0 0 0 0 0 0 0 0 0 0 0 0 0 127 0" result="hardAlpha"/>
<feOffset dx="4" dy="4"/>
<feGaussianBlur stdDeviation="6.3"/>
<feComposite in2="hardAlpha" operator="out"/>
<feColorMatrix type="matrix" values="0 0 0 0 0 0 0 0 0 0 0 0 0 0 0 0 0 0 0.3 0"/>
<feBlend mode="normal" in2="BackgroundImageFix" result="effect1_dropShadow_2_331"/>
<feBlend mode="normal" in="SourceGraphic" in2="effect1_dropShadow_2_331" result="shape"/>
</filter>
<linearGradient id="paint0_linear_2_331" x1="9" y1="291" x2="691" y2="291" gradientUnits="userSpaceOnUse">
<stop stop-color="#FF6B00"/>
<stop offset="1" stop-color="#751703"/>
</linearGradient>
</defs>
</svg>
