<?xml version="1.0" standalone="no"?>
<!DOCTYPE svg PUBLIC "-//W3C//DTD SVG 20010904//EN"
 "http://www.w3.org/TR/2001/REC-SVG-20010904/DTD/svg10.dtd">
<svg version="1.0" xmlns="http://www.w3.org/2000/svg"
 width="500.000000pt" height="500.000000pt" viewBox="0 0 500.000000 500.000000"
 preserveAspectRatio="xMidYMid meet">

<g transform="translate(0.000000,500.000000) scale(0.100000,-0.100000)"
fill="#ffff" stroke="none">
<path d="M3542 3280 c-80 -49 -75 -172 9 -216 84 -43 182 16 182 111 0 51 -16
81 -56 105 -41 26 -93 25 -135 0z"/>
<path d="M4470 3035 l0 -115 -45 0 -45 0 0 -42 0 -42 -27 27 c-94 89 -293 96
-362 13 -20 -24 -31 -19 -31 14 l0 30 -105 0 -105 0 0 -310 0 -310 104 0 104
0 4 193 c3 173 5 195 23 219 59 78 159 78 200 -2 12 -23 15 -70 15 -220 l0
-190 111 0 111 0 -4 230 -3 230 26 0 27 0 3 -163 c4 -151 6 -166 30 -212 42
-84 137 -119 251 -96 90 19 92 22 62 116 -14 44 -27 81 -28 83 -2 1 -16 -2
-31 -8 -24 -9 -32 -8 -49 9 -17 18 -20 34 -20 143 l-1 123 68 3 67 3 0 79 0
80 -70 0 -70 0 0 115 0 115 -105 0 -105 0 0 -115z"/>
<path d="M557 2926 c-20 -7 -53 -26 -72 -40 l-35 -27 0 30 0 31 -110 0 -110 0
0 -310 0 -310 110 0 110 0 0 195 0 195 33 36 c26 29 42 37 80 41 43 5 49 3 82
-30 l35 -35 0 -201 0 -201 110 0 110 0 0 218 c0 122 -5 234 -11 255 -31 113
-213 197 -332 153z"/>
<path d="M1949 2931 c-41 -13 -72 -31 -106 -64 l-33 -31 0 42 0 42 -105 0
-105 0 0 -310 0 -310 105 0 105 0 0 175 c0 193 8 228 60 259 35 20 99 21 145
2 l35 -15 40 86 c22 47 40 89 40 94 0 11 -96 39 -129 38 -14 0 -38 -4 -52 -8z"/>
<path d="M2637 2926 c-26 -7 -65 -27 -87 -45 l-40 -32 0 36 0 35 -105 0 -105
0 0 -465 0 -465 105 0 105 0 0 180 c0 99 3 180 6 180 3 0 18 -8 32 -18 79 -54
210 -64 296 -22 59 28 116 85 145 143 l21 42 0 -97 0 -98 110 0 110 0 0 175
c0 197 8 233 59 259 38 20 107 20 145 1 16 -9 30 -14 31 -13 1 2 10 17 18 33
15 28 16 15 17 -212 l0 -243 105 0 105 0 0 310 0 310 -95 0 c-51 0 -117 5
-145 11 -73 15 -137 -2 -195 -53 l-45 -40 0 41 0 41 -110 0 -110 0 0 -97 0
-98 -21 42 c-28 57 -86 115 -140 141 -58 28 -150 36 -212 18z m96 -193 c30
-15 66 -81 67 -121 0 -33 -24 -86 -51 -111 -76 -70 -216 -27 -234 72 -26 135
94 222 218 160z"/>
<path d="M912 2688 c3 -227 4 -234 28 -278 14 -24 43 -57 65 -72 82 -58 270
-73 405 -32 65 19 128 78 149 139 9 27 15 110 18 258 l5 217 -111 0 -111 0 0
-185 c0 -248 -11 -275 -117 -275 -29 0 -58 7 -72 16 -43 31 -51 70 -51 264 l0
180 -106 0 -105 0 3 -232z"/>
</g>
</svg>
