<svg width="90" height="91" viewBox="0 0 90 91" fill="none" xmlns="http://www.w3.org/2000/svg">
<g clip-path="url(#clip0_11_42)">
<path d="M90 45.5C90 20.6472 69.8528 0.5 45 0.5C20.1472 0.5 0 20.6472 0 45.5C0 70.3528 20.1472 90.5 45 90.5C69.8528 90.5 90 70.3528 90 45.5Z" fill="rgb(29, 31, 38)"/>
<path d="M57.6864 32.2376V33.1376H58.5864V32.2376H57.6864ZM39.3696 32.2376V31.3376H38.4696V32.2376H39.3696ZM39.3696 40.4744H38.4696V42.8696L40.0469 41.067L39.3696 40.4744ZM42.7104 38.3432L43.0088 39.1923L43.0151 39.1901L43.0215 39.1876L42.7104 38.3432ZM54.288 39.38L53.7888 40.1288L53.7943 40.1325L53.7998 40.136L54.288 39.38ZM55.9584 61.556L56.6044 62.1826L56.609 62.1779L55.9584 61.556ZM37.4112 63.8024L37.0141 64.6101L37.0254 64.6154L37.4112 63.8024ZM30.2112 52.3976V51.4976H29.2839L29.3116 52.4244L30.2112 52.3976ZM39.8304 52.3976L40.7209 52.2666L40.6077 51.4976H39.8304V52.3976ZM41.3856 55.6232L40.7492 56.2596L40.7563 56.2667L40.7635 56.2735L41.3856 55.6232ZM48.816 55.22L48.1109 54.6607L48.1048 54.6683L48.099 54.676L48.816 55.22ZM41.7312 46.1192L42.2144 46.8785L42.2264 46.8709L42.2382 46.8627L41.7312 46.1192ZM40.0032 48.2504V49.1504H40.643L40.8533 48.546L40.0032 48.2504ZM30.4416 48.2504H29.5416V49.1504H30.4416V48.2504ZM30.4416 23.5976V22.6976H29.5416V23.5976H30.4416ZM57.6864 23.5976H58.5864V22.6976H57.6864V23.5976ZM57.6864 31.3376H39.3696V33.1376H57.6864V31.3376ZM38.4696 32.2376V40.4744H40.2696V32.2376H38.4696ZM40.0469 41.067C40.7302 40.2861 41.701 39.6518 43.0088 39.1923L42.4121 37.494C40.8783 38.0329 39.6218 38.8195 38.6923 39.8817L40.0469 41.067ZM43.0215 39.1876C44.3728 38.6899 45.841 38.4368 47.4336 38.4368V36.6368C45.647 36.6368 43.9664 36.9213 42.3993 37.4987L43.0215 39.1876ZM47.4336 38.4368C50.0236 38.4368 52.1244 39.0193 53.7888 40.1288L54.7872 38.6311C52.7652 37.2832 50.2964 36.6368 47.4336 36.6368V38.4368ZM53.7998 40.136C55.4919 41.2289 56.7387 42.7025 57.552 44.5767L59.2032 43.8601C58.2502 41.6638 56.7705 39.9119 54.7763 38.624L53.7998 40.136ZM57.552 44.5767C58.3811 46.4872 58.8024 48.6099 58.8024 50.9576H60.6024C60.6024 48.39 60.1405 46.02 59.2032 43.8601L57.552 44.5767ZM58.8024 50.9576C58.8024 55.2373 57.6083 58.5274 55.3078 60.9341L56.609 62.1779C59.3005 59.3621 60.6024 55.5867 60.6024 50.9576H58.8024ZM55.3125 60.9293C53.0281 63.284 49.7733 64.5152 45.4176 64.5152V66.3152C50.1242 66.3152 53.8969 64.9735 56.6044 62.1826L55.3125 60.9293ZM45.4176 64.5152C42.4497 64.5152 39.9181 63.9959 37.797 62.9893L37.0254 64.6154C39.4356 65.7592 42.2416 66.3152 45.4176 66.3152V64.5152ZM37.8082 62.9947C35.6783 61.9477 34.0638 60.52 32.932 58.716L31.4072 59.6727C32.733 61.7856 34.6127 63.4299 37.0141 64.6101L37.8082 62.9947ZM32.932 58.716C31.7976 56.9082 31.1834 54.8021 31.1108 52.3708L29.3116 52.4244C29.3927 55.1387 30.084 57.5637 31.4072 59.6727L32.932 58.716ZM30.2112 53.2976H39.8304V51.4976H30.2112V53.2976ZM38.9399 52.5285C39.157 54.0044 39.7533 55.2636 40.7492 56.2596L42.022 54.9868C41.3284 54.2931 40.8878 53.4019 40.7209 52.2666L38.9399 52.5285ZM40.7635 56.2735C41.8502 57.313 43.2826 57.7904 44.9568 57.7904V55.9904C43.6358 55.9904 42.6874 55.6229 42.0077 54.9728L40.7635 56.2735ZM44.9568 57.7904C46.8924 57.7904 48.4779 57.1548 49.533 55.7639L48.099 54.676C47.4646 55.5124 46.4772 55.9904 44.9568 55.9904V57.7904ZM49.5212 55.7792C50.5638 54.4646 51.0408 52.7702 51.0408 50.7848H49.2408C49.2408 52.4858 48.8346 53.7481 48.1109 54.6607L49.5212 55.7792ZM51.0408 50.7848C51.0408 48.8643 50.5372 47.2485 49.4077 46.0719L48.1091 47.3184C48.8228 48.0618 49.2408 49.1725 49.2408 50.7848H51.0408ZM49.4077 46.0719C48.2773 44.8944 46.7326 44.3552 44.8992 44.3552V46.1552C46.3682 46.1552 47.3963 46.576 48.1091 47.3184L49.4077 46.0719ZM44.8992 44.3552C43.4948 44.3552 42.2508 44.6756 41.2242 45.3756L42.2382 46.8627C42.9012 46.4108 43.7693 46.1552 44.8992 46.1552V44.3552ZM41.248 45.3598C40.2452 45.998 39.5318 46.866 39.1532 47.9547L40.8533 48.546C41.089 47.8683 41.5276 47.3155 42.2144 46.8785L41.248 45.3598ZM40.0032 47.3504H30.4416V49.1504H40.0032V47.3504ZM31.3416 48.2504V23.5976H29.5416V48.2504H31.3416ZM30.4416 24.4976H57.6864V22.6976H30.4416V24.4976ZM56.7864 23.5976V32.2376H58.5864V23.5976H56.7864Z" fill="white"/>
</g>
<defs>
<linearGradient id="paint0_linear_11_42" x1="-18.9356" y1="21.5484" x2="114.201" y2="26.7517" gradientUnits="userSpaceOnUse">
<stop stop-color="#000000"/>
<stop offset="1" stop-color="#000000"/>
</linearGradient>
<clipPath id="clip0_11_42">
<rect width="90" height="90" fill="white" transform="translate(0 0.5)"/>
</clipPath>
</defs>
</svg>
