<svg width="1921" height="1081" viewBox="0 0 1921 1081" fill="none" xmlns="http://www.w3.org/2000/svg">
<g clip-path="url(#clip0_5_22)">
<path d="M1920.92 0.0837402H0.92334V1080.08H1920.92V0.0837402Z" fill="black"/>
<path d="M0.92334 -589.916C35.59 -584 134.257 -571.583 208.923 -554.416C283.59 -537.25 358.257 -509.416 448.923 -486.916C539.59 -464.416 662.257 -452.583 752.923 -419.416C843.59 -386.25 912.923 -310.416 992.923 -287.916C1072.92 -265.416 1152.92 -306.916 1232.92 -284.416C1312.92 -261.916 1392.92 -175.416 1472.92 -152.916C1552.92 -130.416 1638.26 -166.583 1712.92 -149.416C1787.59 -132.25 1886.26 -66.4996 1920.92 -49.9163V1080.08H0.92334V-589.916Z" fill="url(#paint0_linear_5_22)"/>
<path d="M0.92334 -339.976C35.59 -333.433 134.257 -319.138 208.923 -300.719C283.59 -282.3 368.923 -263.88 448.923 -229.461C528.923 -195.042 598.257 -128.623 688.923 -94.2038C779.59 -59.7846 912.923 -46.6988 992.923 -22.9463C1072.92 0.806242 1088.92 35.2254 1168.92 48.3112C1248.92 61.3971 1382.26 42.4829 1472.92 55.5687C1563.59 68.6546 1638.26 97.7404 1712.92 126.826C1787.59 155.912 1886.26 212.874 1920.92 230.084V1080.08H0.92334V-339.976Z" fill="url(#paint1_linear_5_22)"/>
<path d="M0.92334 -190.036C41.8122 -184.256 180.479 -172.25 246.257 -155.356C312.034 -138.463 335.146 -110.903 395.59 -88.6763C456.034 -66.4496 537.812 -44.2229 608.923 -21.9963C680.034 0.230406 740.479 22.4571 822.257 44.6837C904.034 66.9104 1017.81 89.1371 1099.59 111.364C1181.37 133.59 1252.48 145.15 1312.92 178.044C1373.37 210.937 1401.81 275.83 1462.26 308.724C1522.7 341.617 1599.15 358.51 1675.59 375.404C1752.03 392.297 1880.03 404.304 1920.92 410.084V1080.08H0.92334V-190.036Z" fill="url(#paint2_linear_5_22)"/>
<path d="M0.92334 -140.096C41.3043 -130.425 157.114 -117.412 243.209 -82.0705C329.304 -46.7286 426.066 41.9467 517.495 71.9552C608.923 101.964 700.352 78.639 791.78 97.9809C883.209 117.323 974.638 147.331 1066.07 188.007C1157.49 228.682 1248.92 312.024 1340.35 342.032C1431.78 372.041 1517.88 343.383 1614.64 368.058C1711.4 392.733 1869.88 469.746 1920.92 490.084V1080.08H0.92334V-140.096Z" fill="url(#paint3_linear_5_22)"/>
<path d="M0.92334 109.844C59.59 126.518 230.257 160.542 352.923 209.892C475.59 259.241 608.923 351.257 736.923 405.94C864.923 460.622 992.923 493.972 1120.92 537.988C1248.92 582.004 1371.59 631.353 1504.92 670.036C1638.26 708.718 1851.59 753.409 1920.92 770.084V1080.08H0.92334V109.844Z" fill="url(#paint4_linear_5_22)"/>
<path d="M0.92334 259.784C31.1456 267.234 116.479 273.584 182.257 304.484C248.034 335.384 324.479 419.617 395.59 445.184C466.701 470.75 537.812 442.984 608.923 457.884C680.034 472.784 751.146 509.017 822.257 534.584C893.368 560.15 964.479 575.05 1035.59 611.284C1106.7 647.517 1177.81 726.417 1248.92 751.984C1320.03 777.55 1391.15 739.117 1462.26 764.684C1533.37 790.25 1599.15 874.484 1675.59 905.384C1752.03 936.284 1880.03 942.634 1920.92 950.084V1080.08H0.92334V259.784Z" fill="url(#paint5_linear_5_22)"/>
</g>
<defs>
<linearGradient id="paint0_linear_5_22" x1="960.923" y1="-589.916" x2="960.923" y2="1080.08" gradientUnits="userSpaceOnUse">
<stop stop-color="#4D4D4D"/>
<stop offset="1"/>
</linearGradient>
<linearGradient id="paint1_linear_5_22" x1="960.923" y1="-339.976" x2="960.923" y2="1080.08" gradientUnits="userSpaceOnUse">
<stop stop-color="#4D4D4D"/>
<stop offset="1"/>
</linearGradient>
<linearGradient id="paint2_linear_5_22" x1="960.923" y1="-190.036" x2="960.923" y2="1080.08" gradientUnits="userSpaceOnUse">
<stop stop-color="#4D4D4D"/>
<stop offset="1"/>
</linearGradient>
<linearGradient id="paint3_linear_5_22" x1="960.923" y1="-140.096" x2="960.923" y2="1080.08" gradientUnits="userSpaceOnUse">
<stop stop-color="#3EB7BB"/>
<stop offset="1" stop-color="#1A1849"/>
</linearGradient>
<linearGradient id="paint4_linear_5_22" x1="960.923" y1="109.844" x2="960.923" y2="1080.08" gradientUnits="userSpaceOnUse">
<stop stop-color="#3E85BB"/>
<stop offset="1" stop-color="#2D1849"/>
</linearGradient>
<linearGradient id="paint5_linear_5_22" x1="960.923" y1="259.784" x2="960.923" y2="1080.08" gradientUnits="userSpaceOnUse">
<stop stop-color="#3E9EBB"/>
<stop offset="1" stop-color="#241849"/>
</linearGradient>
<clipPath id="clip0_5_22">
<rect width="1920" height="1080" fill="white" transform="translate(0.92334 0.0837402)"/>
</clipPath>
</defs>
</svg>
